<svg xmlns="http://www.w3.org/2000/svg" viewBox="0 0 400 400" width="400" height="400">
  <defs>
    <filter id="shadow" x="-20%" y="-20%" width="140%" height="140%">
      <feDropShadow dx="2" dy="2" stdDeviation="2" flood-color="gray" flood-opacity="0.3" />
    </filter>
  </defs>
  <rect width="400" height="400" fill="white" />
  <g stroke="black" stroke-width="2" fill="none" filter="url(#shadow)">
    <!-- Circle -->
    <circle cx="50" cy="50" r="30" />
    <circle cx="150" cy="50" r="30" />
    <circle cx="250" cy="50" r="30" />
    <circle cx="350" cy="50" r="30" />
    <!-- Square -->
    <rect x="20" y="120" width="60" height="60" />
    <rect x="120" y="120" width="60" height="60" />
    <rect x="220" y="120" width="60" height="60" />
    <rect x="320" y="120" width="60" height="60" />
    <!-- Triangle -->
    <polygon points="50,250 70,290 30,290" />
    <polygon points="150,250 170,290 130,290" />
    <polygon points="250,250 270,290 230,290" />
    <polygon points="350,250 370,290 330,290" />
  </g>
</svg>